<svg xmlns="http://www.w3.org/2000/svg" xmlns:xlink="http://www.w3.org/1999/xlink" width="48" height="48" fill="none" viewBox="0 0 48 48"><g clip-path="url(#clip0_6538_26640)"><rect width="48" height="48"/><rect width="48" height="48" fill="url(#pattern0_6538_26640)" fill-opacity=".2"/><rect width="3.596" height=".598" fill="#F2E9FA"/><rect width="3.596" height=".598" x="5.943" y="1.98" fill="#F2E9FA"/><rect width="3.596" height=".598" x="5.943" y="5.941" fill="#F2E9FA"/><rect width="3.596" height=".598" x="5.943" y="9.901" fill="#F2E9FA"/><rect width="3.596" height=".598" x="5.943" y="13.861" fill="#F2E9FA"/><rect width="3.596" height=".598" x="5.943" y="17.821" fill="#F2E9FA"/><rect width="3.596" height=".598" x="5.943" y="21.781" fill="#F2E9FA"/><rect width="3.596" height=".598" x="5.943" y="25.741" fill="#F2E9FA"/><rect width="3.596" height=".598" x="5.943" y="29.695" fill="#F2E9FA"/><rect width="3.596" height=".598" x="5.943" y="33.648" fill="#F2E9FA"/><rect width="3.596" height=".598" x="5.943" y="37.602" fill="#F2E9FA"/><rect width="3.596" height=".598" x="5.943" y="41.555" fill="#F2E9FA"/><rect width="3.596" height=".598" x="5.943" y="45.508" fill="#F2E9FA"/><rect width="3.596" height=".598" x="17.819" y="1.98" fill="#F2E9FA"/><rect width="3.596" height=".598" x="29.706" y="1.98" fill="#F2E9FA"/><rect width="3.596" height=".598" x="41.592" y="1.98" fill="#F2E9FA"/><rect width="3.596" height=".598" x="17.819" y="5.941" fill="#F2E9FA"/><rect width="3.596" height=".598" x="29.706" y="5.941" fill="#F2E9FA"/><rect width="3.596" height=".598" x="41.592" y="5.941" fill="#F2E9FA"/><rect width="3.596" height=".598" x="17.819" y="9.901" fill="#F2E9FA"/><rect width="3.596" height=".598" x="29.706" y="9.901" fill="#F2E9FA"/><rect width="3.596" height=".598" x="41.592" y="9.901" fill="#F2E9FA"/><rect width="3.596" height=".598" x="17.819" y="13.861" fill="#F2E9FA"/><rect width="3.596" height=".598" x="29.706" y="13.861" fill="#F2E9FA"/><rect width="3.596" height=".598" x="41.592" y="13.861" fill="#F2E9FA"/><rect width="3.596" height=".598" x="17.819" y="17.821" fill="#F2E9FA"/><rect width="3.596" height=".598" x="29.706" y="17.821" fill="#F2E9FA"/><rect width="3.596" height=".598" x="41.592" y="17.821" fill="#F2E9FA"/><rect width="3.596" height=".598" x="17.819" y="21.781" fill="#F2E9FA"/><rect width="3.596" height=".598" x="29.706" y="21.781" fill="#F2E9FA"/><rect width="3.596" height=".598" x="41.592" y="21.781" fill="#F2E9FA"/><rect width="3.596" height=".598" x="17.819" y="25.741" fill="#F2E9FA"/><rect width="3.596" height=".598" x="17.819" y="29.695" fill="#F2E9FA"/><rect width="3.596" height=".598" x="17.819" y="33.648" fill="#F2E9FA"/><rect width="3.596" height=".598" x="17.819" y="37.602" fill="#F2E9FA"/><rect width="3.596" height=".598" x="17.819" y="41.555" fill="#F2E9FA"/><rect width="3.596" height=".598" x="17.819" y="45.508" fill="#F2E9FA"/><rect width="3.596" height=".598" x="29.706" y="25.741" fill="#F2E9FA"/><rect width="3.596" height=".598" x="29.706" y="29.695" fill="#F2E9FA"/><rect width="3.596" height=".598" x="29.706" y="33.648" fill="#F2E9FA"/><rect width="3.596" height=".598" x="29.706" y="37.602" fill="#F2E9FA"/><rect width="3.596" height=".598" x="29.706" y="41.555" fill="#F2E9FA"/><rect width="3.596" height=".598" x="29.706" y="45.508" fill="#F2E9FA"/><rect width="3.596" height=".598" x="41.592" y="25.741" fill="#F2E9FA"/><rect width="3.596" height=".598" x="41.592" y="29.695" fill="#F2E9FA"/><rect width="3.596" height=".598" x="41.592" y="33.648" fill="#F2E9FA"/><rect width="3.596" height=".598" x="41.592" y="37.602" fill="#F2E9FA"/><rect width="3.596" height=".598" x="41.592" y="41.555" fill="#F2E9FA"/><rect width="3.596" height=".598" x="41.592" y="45.508" fill="#F2E9FA"/><rect width="3.596" height=".598" y="3.961" fill="#F2E9FA"/><rect width="3.596" height=".598" y="7.922" fill="#F2E9FA"/><rect width="3.596" height=".598" y="11.882" fill="#F2E9FA"/><rect width="3.596" height=".598" y="15.843" fill="#F2E9FA"/><rect width="3.596" height=".598" y="19.804" fill="#F2E9FA"/><rect width="3.596" height=".598" y="23.765" fill="#F2E9FA"/><rect width="3.596" height=".598" y="27.718" fill="#F2E9FA"/><rect width="3.596" height=".598" y="31.671" fill="#F2E9FA"/><rect width="3.596" height=".598" y="35.625" fill="#F2E9FA"/><rect width="3.596" height=".598" y="39.578" fill="#F2E9FA"/><rect width="3.596" height=".598" y="43.532" fill="#F2E9FA"/><rect width="3.596" height=".598" y="47.485" fill="#F2E9FA"/><rect width="3.596" height=".598" x="11.887" fill="#F2E9FA"/><rect width="3.596" height=".598" x="11.887" y="3.961" fill="#F2E9FA"/><rect width="3.596" height=".598" x="11.887" y="7.922" fill="#F2E9FA"/><rect width="3.596" height=".598" x="11.887" y="11.882" fill="#F2E9FA"/><rect width="3.596" height=".598" x="11.887" y="15.843" fill="#F2E9FA"/><rect width="3.596" height=".598" x="11.887" y="19.804" fill="#F2E9FA"/><rect width="3.596" height=".598" x="11.887" y="23.765" fill="#F2E9FA"/><rect width="3.596" height=".598" x="11.887" y="27.718" fill="#F2E9FA"/><rect width="3.596" height=".598" x="11.887" y="31.671" fill="#F2E9FA"/><rect width="3.596" height=".598" x="11.887" y="35.625" fill="#F2E9FA"/><rect width="3.596" height=".598" x="11.887" y="39.578" fill="#F2E9FA"/><rect width="3.596" height=".598" x="11.887" y="43.532" fill="#F2E9FA"/><rect width="3.596" height=".598" x="11.887" y="47.485" fill="#F2E9FA"/><rect width="3.596" height=".598" x="23.762" fill="#F2E9FA"/><rect width="3.596" height=".598" x="35.649" fill="#F2E9FA"/><rect width="3.596" height=".598" x="47.536" fill="#F2E9FA"/><rect width="3.596" height=".598" x="23.762" y="3.961" fill="#F2E9FA"/><rect width="3.596" height=".598" x="35.649" y="3.961" fill="#F2E9FA"/><rect width="3.596" height=".598" x="47.536" y="3.961" fill="#F2E9FA"/><rect width="3.596" height=".598" x="23.762" y="7.922" fill="#F2E9FA"/><rect width="3.596" height=".598" x="35.649" y="7.922" fill="#F2E9FA"/><rect width="3.596" height=".598" x="47.536" y="7.922" fill="#F2E9FA"/><rect width="3.596" height=".598" x="23.762" y="11.882" fill="#F2E9FA"/><rect width="3.596" height=".598" x="35.649" y="11.882" fill="#F2E9FA"/><rect width="3.596" height=".598" x="47.536" y="11.882" fill="#F2E9FA"/><rect width="3.596" height=".598" x="23.762" y="15.843" fill="#F2E9FA"/><rect width="3.596" height=".598" x="35.649" y="15.843" fill="#F2E9FA"/><rect width="3.596" height=".598" x="47.536" y="15.843" fill="#F2E9FA"/><rect width="3.596" height=".598" x="23.762" y="19.804" fill="#F2E9FA"/><rect width="3.596" height=".598" x="35.649" y="19.804" fill="#F2E9FA"/><rect width="3.596" height=".598" x="47.536" y="19.804" fill="#F2E9FA"/><rect width="3.596" height=".598" x="23.762" y="23.765" fill="#F2E9FA"/><rect width="3.596" height=".598" x="23.762" y="27.718" fill="#F2E9FA"/><rect width="3.596" height=".598" x="23.762" y="31.671" fill="#F2E9FA"/><rect width="3.596" height=".598" x="23.762" y="35.625" fill="#F2E9FA"/><rect width="3.596" height=".598" x="23.762" y="39.578" fill="#F2E9FA"/><rect width="3.596" height=".598" x="23.762" y="43.532" fill="#F2E9FA"/><rect width="3.596" height=".598" x="23.762" y="47.485" fill="#F2E9FA"/><rect width="3.596" height=".598" x="35.649" y="23.765" fill="#F2E9FA"/><rect width="3.596" height=".598" x="35.649" y="27.718" fill="#F2E9FA"/><rect width="3.596" height=".598" x="35.649" y="31.671" fill="#F2E9FA"/><rect width="3.596" height=".598" x="35.649" y="35.625" fill="#F2E9FA"/><rect width="3.596" height=".598" x="35.649" y="39.578" fill="#F2E9FA"/><rect width="3.596" height=".598" x="35.649" y="43.532" fill="#F2E9FA"/><rect width="3.596" height=".598" x="35.649" y="47.485" fill="#F2E9FA"/><rect width="3.596" height=".598" x="47.536" y="23.765" fill="#F2E9FA"/><rect width="3.596" height=".598" x="47.536" y="27.718" fill="#F2E9FA"/><rect width="3.596" height=".598" x="47.536" y="31.671" fill="#F2E9FA"/><rect width="3.596" height=".598" x="47.536" y="35.625" fill="#F2E9FA"/><rect width="3.596" height=".598" x="47.536" y="39.578" fill="#F2E9FA"/><rect width="3.596" height=".598" x="47.536" y="43.532" fill="#F2E9FA"/><rect width="3.596" height=".598" x="47.536" y="47.485" fill="#F2E9FA"/></g><defs><clipPath id="clip0_6538_26640"><rect width="48" height="48" fill="#fff"/></clipPath><pattern id="pattern0_6538_26640" width="1" height="1" patternTransform="matrix(11.88 0 0 3.96 0 0.000146484)" patternUnits="userSpaceOnUse" preserveAspectRatio="none" viewBox="0 0 19.8 6.6"><use transform="translate(-19.8 0)" xlink:href="#pattern0_6538_26640_inner"/><g id="pattern0_6538_26640_inner"><g opacity=".5"><rect width="6" height="1" x="6" y="1" fill="#7E22CE" transform="rotate(-180 6 1.00024)"/></g></g><use transform="translate(-9.9 3.3)" xlink:href="#pattern0_6538_26640_inner"/><use transform="translate(9.9 3.3)" xlink:href="#pattern0_6538_26640_inner"/></pattern></defs></svg>